<svg xmlns="http://www.w3.org/2000/svg" viewBox="0 0 48 48" width="48" height="48" >
        <path id="i-2154" fill="#fff" d="M 48 6 h -2 V 0 h -8 v 6 h -1 V 0 h -8 v 6 h -1 V 0 h -8 v 6 h -1 V 0 h -8 v 6 h -1 V 0 H 2 v 6 H 0 v 8 h 2 v 34 h 8 V 14 h 1 v 29 h 8 V 14 h 1 v 24 h 8 V 14 h 1 v 19 h 8 V 14 h 1 v 13.289 h 8 V 14 h 2 V 6 Z M 40 2 h 4 v 4 h -4 V 2 Z M 31 2 h 4 v 4 h -4 V 2 Z M 22 2 h 4 v 4 h -4 V 2 Z M 13 2 h 4 v 4 h -4 V 2 Z M 4 2 h 4 v 4 H 4 V 2 Z M 8 46 H 4 V 14 h 4 V 46 Z M 17 41 h -4 V 14 h 4 V 41 Z M 26 36 h -4 V 14 h 4 V 36 Z M 35 31 h -4 V 14 h 4 V 31 Z M 44 25.289 h -4 V 14 h 4 V 25.289 Z M 46 12 H 2 V 8 h 44 V 12 Z M 5 10 c 0 -0.553 0.448 -1 1 -1 s 1 0.447 1 1 s -0.448 1 -1 1 S 5 10.553 5 10 Z M 23 10 c 0 -0.553 0.448 -1 1 -1 c 0.553 0 1 0.447 1 1 s -0.447 1 -1 1 C 23.448 11 23 10.553 23 10 Z M 14 10 c 0 -0.553 0.448 -1 1 -1 s 1 0.447 1 1 s -0.448 1 -1 1 S 14 10.553 14 10 Z M 32 10 c 0 -0.553 0.447 -1 1 -1 s 1 0.447 1 1 s -0.447 1 -1 1 S 32 10.553 32 10 Z M 41 10 c 0 -0.553 0.447 -1 1 -1 s 1 0.447 1 1 s -0.447 1 -1 1 S 41 10.553 41 10 Z" />
</svg>
