<svg xmlns="http://www.w3.org/2000/svg" viewBox="0 0 50 50" width="75" height="75" >
    <path id="i-2192" fill="#fff" d="M 40 18.611 l -2 -0.391 V 15 h -8 v 1.654 l -2 -0.391 V 13 h -8 v 1.698 l -2 -0.392 V 11 h -8 v 1.742 l -2 -0.392 V 9 H 0 v 39 h 8 v -4.351 l 2 -0.392 V 46 h 8 v -4.307 l 2 -0.392 V 44 h 8 v -4.264 l 2 -0.391 V 42 h 8 v -4.221 l 2 -0.391 V 40 h 8 V 17 h -8 V 18.611 Z M 40 20.649 v 0.962 l -2 -0.391 v -0.963 L 40 20.649 Z M 40 23.649 v 8.701 l -2 0.392 v -9.484 L 40 23.649 Z M 30 18.693 v 0.961 l -2 -0.391 v -0.962 L 30 18.693 Z M 30 21.693 v 12.613 l -2 0.392 V 21.302 L 30 21.693 Z M 20 16.736 v 0.962 l -2 -0.392 v -0.961 L 20 16.736 Z M 20 19.736 v 16.527 l -2 0.391 V 19.346 L 20 19.736 Z M 10 14.779 v 0.963 l -2 -0.392 v -0.962 L 10 14.779 Z M 10 17.779 v 20.441 l -2 0.391 V 17.389 L 10 17.779 Z M 6 46 H 2 V 11 h 4 V 46 Z M 8 41.611 v -0.962 l 2 -0.392 v 0.963 L 8 41.611 Z M 16 44 h -4 V 13 h 4 V 44 Z M 18 39.654 v -0.961 l 2 -0.392 v 0.962 L 18 39.654 Z M 26 42 h -4 V 15 h 4 V 42 Z M 28 37.698 v -0.962 l 2 -0.391 v 0.961 L 28 37.698 Z M 36 40 h -4 V 17 h 4 V 40 Z M 38 35.742 v -0.963 l 2 -0.391 v 0.962 L 38 35.742 Z M 42 19 h 4 v 19 h -4 V 19 Z M 3 42 c 0 -0.553 0.447 -1 1 -1 s 1 0.447 1 1 s -0.447 1 -1 1 S 3 42.553 3 42 Z M 13 40 c 0 -0.553 0.447 -1 1 -1 s 1 0.447 1 1 s -0.447 1 -1 1 S 13 40.553 13 40 Z M 23 38 c 0 -0.553 0.447 -1 1 -1 s 1 0.447 1 1 s -0.447 1 -1 1 S 23 38.553 23 38 Z M 33 36 c 0 -0.553 0.447 -1 1 -1 s 1 0.447 1 1 s -0.447 1 -1 1 S 33 36.553 33 36 Z M 45 34 c 0 0.553 -0.447 1 -1 1 s -1 -0.447 -1 -1 s 0.447 -1 1 -1 S 45 33.447 45 34 Z M 3 14 c 0 -0.553 0.447 -1 1 -1 s 1 0.447 1 1 s -0.447 1 -1 1 S 3 14.553 3 14 Z M 13 16 c 0 -0.553 0.447 -1 1 -1 s 1 0.447 1 1 s -0.447 1 -1 1 S 13 16.553 13 16 Z M 23 18 c 0 -0.553 0.447 -1 1 -1 s 1 0.447 1 1 s -0.447 1 -1 1 S 23 18.553 23 18 Z M 33 20 c 0 -0.553 0.447 -1 1 -1 s 1 0.447 1 1 s -0.447 1 -1 1 S 33 20.553 33 20 Z M 45 22 c 0 0.553 -0.447 1 -1 1 s -1 -0.447 -1 -1 s 0.447 -1 1 -1 S 45 21.447 45 22 Z M 45 5 c -1.302 0 -2.401 0.838 -2.815 2 H 10 v 2 h 32.185 c 0.414 1.162 1.514 2 2.815 2 c 1.654 0 3 -1.346 3 -3 S 46.654 5 45 5 Z M 45 9 c -0.552 0 -1 -0.449 -1 -1 s 0.448 -1 1 -1 s 1 0.449 1 1 S 45.552 9 45 9 Z M 15.816 2 C 15.401 0.838 14.302 0 13 0 c -1.654 0 -3 1.346 -3 3 s 1.346 3 3 3 c 1.302 0 2.401 -0.838 2.816 -2 H 48 V 2 H 15.816 Z M 13 4 c -0.551 0 -1 -0.449 -1 -1 s 0.449 -1 1 -1 s 1 0.449 1 1 S 13.551 4 13 4 Z" />
</svg>