<svg xmlns="http://www.w3.org/2000/svg" viewBox="0 0 50 50" width="75" height="75" >
    <path id="i-2165" fill="#fff" d="M 26.689 43.088 C 32.488 33.072 44 12.953 44 11 c 0 -0.24 -0.02 -0.46 -0.07 -0.65 c -0.14 -0.75 -0.54 -1.16 -0.89 -1.379 c -0.65 -0.421 -1.5 -0.421 -2.49 -0.181 c -1.189 0.28 -2.58 0.91 -4.09 1.61 C 34.83 11.15 32.97 12 32 12 c -1.59 0 -3.07 -1.07 -4.95 -2.43 C 24.07 7.416 20.074 4.539 13 4.072 V 3 c 0 -1.654 -1.346 -3 -3 -3 H 7 C 5.346 0 4 1.346 4 3 v 2 h 2.139 l 5.702 38.016 C 10.262 43.101 9 44.4 9 46 v 2 h 20 v -2 C 29 44.584 28.011 43.4 26.689 43.088 Z M 37.3 12.221 c 0.771 -0.351 1.891 -0.871 2.851 -1.23 c 0.002 -0.001 0.004 -0.002 0.007 -0.002 c -0.267 0.959 -1.332 2.759 -2.976 5.139 l -0.688 -3.541 C 36.76 12.466 37.028 12.344 37.3 12.221 Z M 39.467 16.238 c -0.013 0.025 -0.024 0.047 -0.037 0.072 c -0.359 0.68 -0.75 1.41 -1.17 2.18 c -0.1 0.189 -0.21 0.39 -0.319 0.59 c -0.53 0.98 -1.11 2.029 -1.71 3.12 c -0.141 0.26 -0.29 0.521 -0.44 0.78 c 0 0.01 -0.01 0.029 -0.021 0.049 c -0.31 0.551 -0.619 1.121 -0.939 1.691 c -0.01 0.029 -0.03 0.049 -0.05 0.079 c -0.46 0.83 -0.931 1.671 -1.41 2.521 c -0.23 0.43 -0.47 0.85 -0.72 1.279 c -0.431 0.771 -0.87 1.551 -1.311 2.33 c -0.05 0.09 -0.1 0.18 -0.149 0.26 c -0.41 0.73 -0.83 1.461 -1.24 2.19 C 28.02 36.779 26.1 40.1 24.42 43 h -6.222 C 23.594 36.783 34.395 24.072 39.467 16.238 Z M 34.611 13.38 l 0.972 4.999 c -0.488 0.67 -1.007 1.371 -1.555 2.1 l -1.274 -6.556 C 33.324 13.824 33.947 13.633 34.611 13.38 Z M 30.701 13.84 l 1.705 8.769 c -0.506 0.656 -1.031 1.331 -1.571 2.019 l -2.264 -11.641 C 29.265 13.374 29.966 13.672 30.701 13.84 Z M 25.88 11.189 c 0.12 0.088 0.236 0.171 0.354 0.256 l 2.965 15.246 c -0.517 0.647 -1.043 1.303 -1.58 1.968 L 23.96 9.842 C 24.641 10.295 25.274 10.753 25.88 11.189 Z M 21.654 8.461 l 4.32 22.217 c -0.523 0.639 -1.051 1.281 -1.588 1.93 L 19.5 7.479 C 20.271 7.778 20.988 8.109 21.654 8.461 Z M 17.325 6.77 l 5.411 27.82 c -0.528 0.631 -1.06 1.263 -1.596 1.896 L 15.279 6.338 C 15.999 6.455 16.682 6.6 17.325 6.77 Z M 13.193 6.09 l 6.29 32.348 c -0.934 1.095 -1.874 2.188 -2.816 3.273 L 11.312 6.008 C 11.967 6.014 12.592 6.043 13.193 6.09 Z M 6 3 c 0 -0.551 0.449 -1 1 -1 h 3 c 0.551 0 1 0.449 1 1 H 6 Z M 8.161 5 h 0.978 l 5.7 38 h -0.978 L 8.161 5 Z M 11 46 c 0 -0.551 0.449 -1 1 -1 h 14 c 0.552 0 1 0.449 1 1 H 11 Z" />
</svg>