<svg xmlns="http://www.w3.org/2000/svg" viewBox="0 0 50 50" width="75" height="75" >
    <path id="i-2186" d="M 48 10 c 0 -5.514 -4.486 -10 -10 -10 c -5.449 0 -9.887 4.383 -9.99 9.809 l -0.894 2.681 L 1.625 41.039 L 3.586 43 l -3.293 3.293 l 1.414 1.414 L 5 44.414 l 1.949 1.949 l 29.458 -25.395 c -0.01 -0.014 -0.014 -0.029 -0.023 -0.043 l 3.185 -1.062 C 44.338 19.107 48 14.979 48 10 Z M 39.896 17.76 c -0.672 -4.471 -4.878 -8.227 -9.826 -8.707 c 0.176 -1.485 0.762 -2.844 1.639 -3.966 c 0.271 -0.066 0.446 -0.099 0.455 -0.101 c 2.519 -0.419 5.479 0.566 7.922 2.637 c 2.437 2.064 3.897 4.803 3.914 7.333 c -0.006 0.091 -0.002 0.192 0.005 0.313 C 42.938 16.479 41.514 17.365 39.896 17.76 Z M 46 10 c 0 0.85 -0.141 1.666 -0.388 2.434 c -0.647 -2.299 -2.124 -4.55 -4.233 -6.337 c -2.158 -1.827 -4.694 -2.933 -7.13 -3.159 C 35.368 2.34 36.645 2 38 2 C 42.411 2 46 5.589 46 10 Z M 7.051 43.637 l -2.676 -2.676 l 24.061 -26.947 c 3.05 0.194 6.268 2.397 6.545 5.545 L 7.051 43.637 Z M 29.354 12.102 l 0.356 -1.07 c 3.827 0.332 7.821 3.289 8.252 7.261 l -1.089 0.362 C 36.189 15.084 32.838 12.619 29.354 12.102 Z" />
</svg>